<?xml version="1.0" encoding="utf-8" standalone="no"?>
<!DOCTYPE svg PUBLIC "-//W3C//DTD SVG 1.1//EN"
  "http://www.w3.org/Graphics/SVG/1.1/DTD/svg11.dtd">
<!-- Created with matplotlib (https://matplotlib.org/) -->
<svg height="566.336177pt" version="1.1" viewBox="0 0 851.052627 566.336177" width="851.052627pt" xmlns="http://www.w3.org/2000/svg" xmlns:xlink="http://www.w3.org/1999/xlink">
 <metadata>
  <rdf:RDF xmlns:cc="http://creativecommons.org/ns#" xmlns:dc="http://purl.org/dc/elements/1.1/" xmlns:rdf="http://www.w3.org/1999/02/22-rdf-syntax-ns#">
   <cc:Work>
    <dc:type rdf:resource="http://purl.org/dc/dcmitype/StillImage"/>
    <dc:date>2021-08-27T03:44:59.876672</dc:date>
    <dc:format>image/svg+xml</dc:format>
    <dc:creator>
     <cc:Agent>
      <dc:title>Matplotlib v3.3.4, https://matplotlib.org/</dc:title>
     </cc:Agent>
    </dc:creator>
   </cc:Work>
  </rdf:RDF>
 </metadata>
 <defs>
  <style type="text/css">*{stroke-linecap:butt;stroke-linejoin:round;}</style>
 </defs>
 <g id="figure_1">
  <g id="patch_1">
   <path d="M 0 566.336177 
L 851.052627 566.336177 
L 851.052627 0 
L 0 0 
z
" style="fill:#ffffff;"/>
  </g>
  <g id="axes_1">
   <g id="patch_2">
    <path d="M 50.640076 441.673333 
L 843.852627 441.673333 
L 843.852627 7.2 
L 50.640076 7.2 
z
" style="fill:#ffffff;"/>
   </g>
   <g id="matplotlib.axis_1">
    <g id="xtick_1">
     <g id="text_1">
      <!-- ALHANDRA -->
      <g style="fill:#262626;" transform="translate(12.721144 499.76015)rotate(-40)scale(0.12 -0.12)">
       <defs>
        <path d="M -0.140625 0 
L 27.34375 71.578125 
L 37.546875 71.578125 
L 66.84375 0 
L 56.0625 0 
L 47.703125 21.6875 
L 17.78125 21.6875 
L 9.90625 0 
z
M 20.515625 29.390625 
L 44.78125 29.390625 
L 37.3125 49.21875 
Q 33.890625 58.25 32.234375 64.0625 
Q 30.859375 57.171875 28.375 50.390625 
z
" id="ArialMT-65"/>
        <path d="M 7.328125 0 
L 7.328125 71.578125 
L 16.796875 71.578125 
L 16.796875 8.453125 
L 52.046875 8.453125 
L 52.046875 0 
z
" id="ArialMT-76"/>
        <path d="M 8.015625 0 
L 8.015625 71.578125 
L 17.484375 71.578125 
L 17.484375 42.1875 
L 54.6875 42.1875 
L 54.6875 71.578125 
L 64.15625 71.578125 
L 64.15625 0 
L 54.6875 0 
L 54.6875 33.734375 
L 17.484375 33.734375 
L 17.484375 0 
z
" id="ArialMT-72"/>
        <path d="M 7.625 0 
L 7.625 71.578125 
L 17.328125 71.578125 
L 54.9375 15.375 
L 54.9375 71.578125 
L 64.015625 71.578125 
L 64.015625 0 
L 54.296875 0 
L 16.703125 56.25 
L 16.703125 0 
z
" id="ArialMT-78"/>
        <path d="M 7.71875 0 
L 7.71875 71.578125 
L 32.375 71.578125 
Q 40.71875 71.578125 45.125 70.5625 
Q 51.265625 69.140625 55.609375 65.4375 
Q 61.28125 60.640625 64.078125 53.1875 
Q 66.890625 45.75 66.890625 36.1875 
Q 66.890625 28.03125 64.984375 21.734375 
Q 63.09375 15.4375 60.109375 11.296875 
Q 57.125 7.171875 53.578125 4.796875 
Q 50.046875 2.4375 45.046875 1.21875 
Q 40.046875 0 33.546875 0 
z
M 17.1875 8.453125 
L 32.46875 8.453125 
Q 39.546875 8.453125 43.578125 9.765625 
Q 47.609375 11.078125 50 13.484375 
Q 53.375 16.84375 55.25 22.53125 
Q 57.125 28.21875 57.125 36.328125 
Q 57.125 47.5625 53.4375 53.59375 
Q 49.75 59.625 44.484375 61.671875 
Q 40.671875 63.140625 32.234375 63.140625 
L 17.1875 63.140625 
z
" id="ArialMT-68"/>
        <path d="M 7.859375 0 
L 7.859375 71.578125 
L 39.59375 71.578125 
Q 49.171875 71.578125 54.140625 69.640625 
Q 59.125 67.71875 62.109375 62.828125 
Q 65.09375 57.953125 65.09375 52.046875 
Q 65.09375 44.4375 60.15625 39.203125 
Q 55.21875 33.984375 44.921875 32.5625 
Q 48.6875 30.765625 50.640625 29 
Q 54.78125 25.203125 58.5 19.484375 
L 70.953125 0 
L 59.03125 0 
L 49.5625 14.890625 
Q 45.40625 21.34375 42.71875 24.75 
Q 40.046875 28.171875 37.921875 29.53125 
Q 35.796875 30.90625 33.59375 31.453125 
Q 31.984375 31.78125 28.328125 31.78125 
L 17.328125 31.78125 
L 17.328125 0 
z
M 17.328125 39.984375 
L 37.703125 39.984375 
Q 44.1875 39.984375 47.84375 41.328125 
Q 51.515625 42.671875 53.421875 45.625 
Q 55.328125 48.578125 55.328125 52.046875 
Q 55.328125 57.125 51.640625 60.390625 
Q 47.953125 63.671875 39.984375 63.671875 
L 17.328125 63.671875 
z
" id="ArialMT-82"/>
       </defs>
       <use xlink:href="#ArialMT-65"/>
       <use x="66.699219" xlink:href="#ArialMT-76"/>
       <use x="122.314453" xlink:href="#ArialMT-72"/>
       <use x="194.53125" xlink:href="#ArialMT-65"/>
       <use x="261.230469" xlink:href="#ArialMT-78"/>
       <use x="333.447266" xlink:href="#ArialMT-68"/>
       <use x="405.664062" xlink:href="#ArialMT-82"/>
       <use x="477.880859" xlink:href="#ArialMT-65"/>
      </g>
     </g>
    </g>
    <g id="xtick_2">
     <g id="text_2">
      <!-- APARECIDA -->
      <g style="fill:#262626;" transform="translate(37.684678 501.764442)rotate(-40)scale(0.12 -0.12)">
       <defs>
        <path d="M 7.71875 0 
L 7.71875 71.578125 
L 34.71875 71.578125 
Q 41.84375 71.578125 45.609375 70.90625 
Q 50.875 70.015625 54.4375 67.546875 
Q 58.015625 65.09375 60.1875 60.640625 
Q 62.359375 56.203125 62.359375 50.875 
Q 62.359375 41.75 56.546875 35.421875 
Q 50.734375 29.109375 35.546875 29.109375 
L 17.1875 29.109375 
L 17.1875 0 
z
M 17.1875 37.546875 
L 35.6875 37.546875 
Q 44.875 37.546875 48.734375 40.96875 
Q 52.59375 44.390625 52.59375 50.59375 
Q 52.59375 55.078125 50.3125 58.265625 
Q 48.046875 61.46875 44.34375 62.5 
Q 41.9375 63.140625 35.5 63.140625 
L 17.1875 63.140625 
z
" id="ArialMT-80"/>
        <path d="M 7.90625 0 
L 7.90625 71.578125 
L 59.671875 71.578125 
L 59.671875 63.140625 
L 17.390625 63.140625 
L 17.390625 41.21875 
L 56.984375 41.21875 
L 56.984375 32.8125 
L 17.390625 32.8125 
L 17.390625 8.453125 
L 61.328125 8.453125 
L 61.328125 0 
z
" id="ArialMT-69"/>
        <path d="M 58.796875 25.09375 
L 68.265625 22.703125 
Q 65.28125 11.03125 57.546875 4.90625 
Q 49.8125 -1.21875 38.625 -1.21875 
Q 27.046875 -1.21875 19.796875 3.484375 
Q 12.546875 8.203125 8.765625 17.140625 
Q 4.984375 26.078125 4.984375 36.328125 
Q 4.984375 47.515625 9.25 55.828125 
Q 13.53125 64.15625 21.40625 68.46875 
Q 29.296875 72.796875 38.765625 72.796875 
Q 49.515625 72.796875 56.828125 67.328125 
Q 64.15625 61.859375 67.046875 51.953125 
L 57.71875 49.75 
Q 55.21875 57.5625 50.484375 61.125 
Q 45.75 64.703125 38.578125 64.703125 
Q 30.328125 64.703125 24.78125 60.734375 
Q 19.234375 56.78125 16.984375 50.109375 
Q 14.75 43.453125 14.75 36.375 
Q 14.75 27.25 17.40625 20.4375 
Q 20.0625 13.625 25.671875 10.25 
Q 31.296875 6.890625 37.84375 6.890625 
Q 45.796875 6.890625 51.3125 11.46875 
Q 56.84375 16.0625 58.796875 25.09375 
z
" id="ArialMT-67"/>
        <path d="M 9.328125 0 
L 9.328125 71.578125 
L 18.796875 71.578125 
L 18.796875 0 
z
" id="ArialMT-73"/>
       </defs>
       <use xlink:href="#ArialMT-65"/>
       <use x="66.699219" xlink:href="#ArialMT-80"/>
       <use x="126.023438" xlink:href="#ArialMT-65"/>
       <use x="192.722656" xlink:href="#ArialMT-82"/>
       <use x="264.939453" xlink:href="#ArialMT-69"/>
       <use x="331.638672" xlink:href="#ArialMT-67"/>
       <use x="403.855469" xlink:href="#ArialMT-73"/>
       <use x="431.638672" xlink:href="#ArialMT-68"/>
       <use x="503.855469" xlink:href="#ArialMT-65"/>
      </g>
     </g>
    </g>
    <g id="xtick_3">
     <g id="text_3">
      <!-- ARARUNA -->
      <g style="fill:#262626;" transform="translate(72.537368 495.470748)rotate(-40)scale(0.12 -0.12)">
       <defs>
        <path d="M 54.6875 71.578125 
L 64.15625 71.578125 
L 64.15625 30.21875 
Q 64.15625 19.4375 61.71875 13.078125 
Q 59.28125 6.734375 52.90625 2.75 
Q 46.53125 -1.21875 36.1875 -1.21875 
Q 26.125 -1.21875 19.71875 2.25 
Q 13.328125 5.71875 10.59375 12.28125 
Q 7.859375 18.84375 7.859375 30.21875 
L 7.859375 71.578125 
L 17.328125 71.578125 
L 17.328125 30.28125 
Q 17.328125 20.953125 19.0625 16.53125 
Q 20.796875 12.109375 25.015625 9.71875 
Q 29.25 7.328125 35.359375 7.328125 
Q 45.796875 7.328125 50.234375 12.0625 
Q 54.6875 16.796875 54.6875 30.28125 
z
" id="ArialMT-85"/>
       </defs>
       <use xlink:href="#ArialMT-65"/>
       <use x="66.699219" xlink:href="#ArialMT-82"/>
       <use x="138.916016" xlink:href="#ArialMT-65"/>
       <use x="205.615234" xlink:href="#ArialMT-82"/>
       <use x="277.832031" xlink:href="#ArialMT-85"/>
       <use x="350.048828" xlink:href="#ArialMT-78"/>
       <use x="422.265625" xlink:href="#ArialMT-65"/>
      </g>
     </g>
    </g>
    <g id="xtick_4">
     <g id="text_4">
      <!-- BERNARDINO BATISTA -->
      <g style="fill:#262626;" transform="translate(44.03914 542.334786)rotate(-40)scale(0.12 -0.12)">
       <defs>
        <path d="M 7.328125 0 
L 7.328125 71.578125 
L 34.1875 71.578125 
Q 42.390625 71.578125 47.34375 69.40625 
Q 52.296875 67.234375 55.09375 62.71875 
Q 57.90625 58.203125 57.90625 53.265625 
Q 57.90625 48.6875 55.421875 44.625 
Q 52.9375 40.578125 47.90625 38.09375 
Q 54.390625 36.1875 57.875 31.59375 
Q 61.375 27 61.375 20.75 
Q 61.375 15.71875 59.25 11.390625 
Q 57.125 7.078125 54 4.734375 
Q 50.875 2.390625 46.15625 1.1875 
Q 41.453125 0 34.625 0 
z
M 16.796875 41.5 
L 32.28125 41.5 
Q 38.578125 41.5 41.3125 42.328125 
Q 44.921875 43.40625 46.75 45.890625 
Q 48.578125 48.390625 48.578125 52.15625 
Q 48.578125 55.71875 46.875 58.421875 
Q 45.171875 61.140625 41.984375 62.140625 
Q 38.8125 63.140625 31.109375 63.140625 
L 16.796875 63.140625 
z
M 16.796875 8.453125 
L 34.625 8.453125 
Q 39.203125 8.453125 41.0625 8.796875 
Q 44.34375 9.375 46.53125 10.734375 
Q 48.734375 12.109375 50.140625 14.71875 
Q 51.5625 17.328125 51.5625 20.75 
Q 51.5625 24.75 49.515625 27.703125 
Q 47.46875 30.671875 43.828125 31.859375 
Q 40.1875 33.0625 33.34375 33.0625 
L 16.796875 33.0625 
z
" id="ArialMT-66"/>
        <path d="M 4.828125 34.859375 
Q 4.828125 52.6875 14.390625 62.765625 
Q 23.96875 72.859375 39.109375 72.859375 
Q 49.03125 72.859375 56.984375 68.109375 
Q 64.9375 63.375 69.109375 54.90625 
Q 73.296875 46.4375 73.296875 35.6875 
Q 73.296875 24.8125 68.890625 16.21875 
Q 64.5 7.625 56.4375 3.203125 
Q 48.390625 -1.21875 39.0625 -1.21875 
Q 28.953125 -1.21875 20.984375 3.65625 
Q 13.03125 8.546875 8.921875 16.984375 
Q 4.828125 25.4375 4.828125 34.859375 
z
M 14.59375 34.71875 
Q 14.59375 21.78125 21.546875 14.328125 
Q 28.515625 6.890625 39.015625 6.890625 
Q 49.703125 6.890625 56.609375 14.40625 
Q 63.53125 21.921875 63.53125 35.75 
Q 63.53125 44.484375 60.578125 51 
Q 57.625 57.515625 51.921875 61.109375 
Q 46.234375 64.703125 39.15625 64.703125 
Q 29.109375 64.703125 21.84375 57.78125 
Q 14.59375 50.875 14.59375 34.71875 
z
" id="ArialMT-79"/>
        <path id="ArialMT-32"/>
        <path d="M 25.921875 0 
L 25.921875 63.140625 
L 2.34375 63.140625 
L 2.34375 71.578125 
L 59.078125 71.578125 
L 59.078125 63.140625 
L 35.40625 63.140625 
L 35.40625 0 
z
" id="ArialMT-84"/>
        <path d="M 4.5 23 
L 13.421875 23.78125 
Q 14.0625 18.40625 16.375 14.96875 
Q 18.703125 11.53125 23.578125 9.40625 
Q 28.46875 7.28125 34.578125 7.28125 
Q 39.984375 7.28125 44.140625 8.890625 
Q 48.296875 10.5 50.3125 13.296875 
Q 52.34375 16.109375 52.34375 19.4375 
Q 52.34375 22.796875 50.390625 25.3125 
Q 48.4375 27.828125 43.953125 29.546875 
Q 41.0625 30.671875 31.203125 33.03125 
Q 21.34375 35.40625 17.390625 37.5 
Q 12.25 40.1875 9.734375 44.15625 
Q 7.234375 48.140625 7.234375 53.078125 
Q 7.234375 58.5 10.296875 63.203125 
Q 13.375 67.921875 19.28125 70.359375 
Q 25.203125 72.796875 32.421875 72.796875 
Q 40.375 72.796875 46.453125 70.234375 
Q 52.546875 67.671875 55.8125 62.6875 
Q 59.078125 57.71875 59.328125 51.421875 
L 50.25 50.734375 
Q 49.515625 57.515625 45.28125 60.984375 
Q 41.0625 64.453125 32.8125 64.453125 
Q 24.21875 64.453125 20.28125 61.296875 
Q 16.359375 58.15625 16.359375 53.71875 
Q 16.359375 49.859375 19.140625 47.359375 
Q 21.875 44.875 33.421875 42.265625 
Q 44.96875 39.65625 49.265625 37.703125 
Q 55.515625 34.8125 58.484375 30.390625 
Q 61.46875 25.984375 61.46875 20.21875 
Q 61.46875 14.5 58.203125 9.4375 
Q 54.9375 4.390625 48.796875 1.578125 
Q 42.671875 -1.21875 35.015625 -1.21875 
Q 25.296875 -1.21875 18.71875 1.609375 
Q 12.15625 4.4375 8.421875 10.125 
Q 4.6875 15.828125 4.5 23 
z
" id="ArialMT-83"/>
       </defs>
       <use xlink:href="#ArialMT-66"/>
       <use x="66.699219" xlink:href="#ArialMT-69"/>
       <use x="133.398438" xlink:href="#ArialMT-82"/>
       <use x="205.615234" xlink:href="#ArialMT-78"/>
       <use x="277.832031" xlink:href="#ArialMT-65"/>
       <use x="344.53125" xlink:href="#ArialMT-82"/>
       <use x="416.748047" xlink:href="#ArialMT-68"/>
       <use x="488.964844" xlink:href="#ArialMT-73"/>
       <use x="516.748047" xlink:href="#ArialMT-78"/>
       <use x="588.964844" xlink:href="#ArialMT-79"/>
       <use x="666.748047" xlink:href="#ArialMT-32"/>
       <use x="694.53125" xlink:href="#ArialMT-66"/>
       <use x="761.230469" xlink:href="#ArialMT-65"/>
       <use x="820.554688" xlink:href="#ArialMT-84"/>
       <use x="881.638672" xlink:href="#ArialMT-73"/>
       <use x="909.421875" xlink:href="#ArialMT-83"/>
       <use x="976.121094" xlink:href="#ArialMT-84"/>
       <use x="1029.830078" xlink:href="#ArialMT-65"/>
      </g>
     </g>
    </g>
    <g id="xtick_5">
     <g id="text_5">
      <!-- CAJAZEIRAS -->
      <g style="fill:#262626;" transform="translate(115.491039 505.330708)rotate(-40)scale(0.12 -0.12)">
       <defs>
        <path d="M 2.875 20.3125 
L 11.421875 21.484375 
Q 11.765625 13.28125 14.5 10.25 
Q 17.234375 7.234375 22.078125 7.234375 
Q 25.640625 7.234375 28.21875 8.859375 
Q 30.8125 10.5 31.78125 13.296875 
Q 32.765625 16.109375 32.765625 22.265625 
L 32.765625 71.578125 
L 42.234375 71.578125 
L 42.234375 22.796875 
Q 42.234375 13.8125 40.0625 8.875 
Q 37.890625 3.953125 33.171875 1.359375 
Q 28.46875 -1.21875 22.125 -1.21875 
Q 12.703125 -1.21875 7.6875 4.203125 
Q 2.6875 9.625 2.875 20.3125 
z
" id="ArialMT-74"/>
        <path d="M 2 0 
L 2 8.796875 
L 38.671875 54.640625 
Q 42.578125 59.515625 46.09375 63.140625 
L 6.15625 63.140625 
L 6.15625 71.578125 
L 57.421875 71.578125 
L 57.421875 63.140625 
L 17.234375 13.484375 
L 12.890625 8.453125 
L 58.59375 8.453125 
L 58.59375 0 
z
" id="ArialMT-90"/>
       </defs>
       <use xlink:href="#ArialMT-67"/>
       <use x="72.216797" xlink:href="#ArialMT-65"/>
       <use x="138.916016" xlink:href="#ArialMT-74"/>
       <use x="188.916016" xlink:href="#ArialMT-65"/>
       <use x="255.615234" xlink:href="#ArialMT-90"/>
       <use x="316.699219" xlink:href="#ArialMT-69"/>
       <use x="383.398438" xlink:href="#ArialMT-73"/>
       <use x="411.181641" xlink:href="#ArialMT-82"/>
       <use x="483.398438" xlink:href="#ArialMT-65"/>
       <use x="550.097656" xlink:href="#ArialMT-83"/>
      </g>
     </g>
    </g>
    <g id="xtick_6">
     <g id="text_6">
      <!-- CAMPINA GRANDE -->
      <g style="fill:#262626;" transform="translate(116.28252 527.617762)rotate(-40)scale(0.12 -0.12)">
       <defs>
        <path d="M 7.421875 0 
L 7.421875 71.578125 
L 21.6875 71.578125 
L 38.625 20.90625 
Q 40.96875 13.8125 42.046875 10.296875 
Q 43.265625 14.203125 45.84375 21.78125 
L 62.984375 71.578125 
L 75.734375 71.578125 
L 75.734375 0 
L 66.609375 0 
L 66.609375 59.90625 
L 45.796875 0 
L 37.25 0 
L 16.546875 60.9375 
L 16.546875 0 
z
" id="ArialMT-77"/>
        <path d="M 41.21875 28.078125 
L 41.21875 36.46875 
L 71.53125 36.53125 
L 71.53125 9.96875 
Q 64.546875 4.390625 57.125 1.578125 
Q 49.703125 -1.21875 41.890625 -1.21875 
Q 31.34375 -1.21875 22.71875 3.296875 
Q 14.109375 7.8125 9.71875 16.359375 
Q 5.328125 24.90625 5.328125 35.453125 
Q 5.328125 45.90625 9.6875 54.953125 
Q 14.0625 64.015625 22.265625 68.40625 
Q 30.46875 72.796875 41.15625 72.796875 
Q 48.921875 72.796875 55.1875 70.28125 
Q 61.46875 67.78125 65.03125 63.28125 
Q 68.609375 58.796875 70.453125 51.5625 
L 61.921875 49.21875 
Q 60.296875 54.6875 57.90625 57.8125 
Q 55.515625 60.9375 51.0625 62.8125 
Q 46.625 64.703125 41.21875 64.703125 
Q 34.71875 64.703125 29.984375 62.71875 
Q 25.25 60.75 22.34375 57.515625 
Q 19.4375 54.296875 17.828125 50.4375 
Q 15.09375 43.796875 15.09375 36.03125 
Q 15.09375 26.46875 18.390625 20.015625 
Q 21.6875 13.578125 27.984375 10.453125 
Q 34.28125 7.328125 41.359375 7.328125 
Q 47.515625 7.328125 53.375 9.6875 
Q 59.234375 12.0625 62.25 14.75 
L 62.25 28.078125 
z
" id="ArialMT-71"/>
       </defs>
       <use xlink:href="#ArialMT-67"/>
       <use x="72.216797" xlink:href="#ArialMT-65"/>
       <use x="138.916016" xlink:href="#ArialMT-77"/>
       <use x="222.216797" xlink:href="#ArialMT-80"/>
       <use x="288.916016" xlink:href="#ArialMT-73"/>
       <use x="316.699219" xlink:href="#ArialMT-78"/>
       <use x="388.916016" xlink:href="#ArialMT-65"/>
       <use x="450.115234" xlink:href="#ArialMT-32"/>
       <use x="477.898438" xlink:href="#ArialMT-71"/>
       <use x="555.681641" xlink:href="#ArialMT-82"/>
       <use x="627.898438" xlink:href="#ArialMT-65"/>
       <use x="694.597656" xlink:href="#ArialMT-78"/>
       <use x="766.814453" xlink:href="#ArialMT-68"/>
       <use x="839.03125" xlink:href="#ArialMT-69"/>
      </g>
     </g>
    </g>
    <g id="xtick_7">
     <g id="text_7">
      <!-- CATOLE DO ROCHA -->
      <g style="fill:#262626;" transform="translate(138.861741 531.62273)rotate(-40)scale(0.12 -0.12)">
       <use xlink:href="#ArialMT-67"/>
       <use x="72.216797" xlink:href="#ArialMT-65"/>
       <use x="131.541016" xlink:href="#ArialMT-84"/>
       <use x="190.875" xlink:href="#ArialMT-79"/>
       <use x="268.658203" xlink:href="#ArialMT-76"/>
       <use x="324.273438" xlink:href="#ArialMT-69"/>
       <use x="390.972656" xlink:href="#ArialMT-32"/>
       <use x="418.755859" xlink:href="#ArialMT-68"/>
       <use x="490.972656" xlink:href="#ArialMT-79"/>
       <use x="568.755859" xlink:href="#ArialMT-32"/>
       <use x="596.539062" xlink:href="#ArialMT-82"/>
       <use x="668.755859" xlink:href="#ArialMT-79"/>
       <use x="746.539062" xlink:href="#ArialMT-67"/>
       <use x="818.755859" xlink:href="#ArialMT-72"/>
       <use x="890.972656" xlink:href="#ArialMT-65"/>
      </g>
     </g>
    </g>
    <g id="xtick_8">
     <g id="text_8">
      <!-- CONCEICAO -->
      <g style="fill:#262626;" transform="translate(198.575924 504.467766)rotate(-40)scale(0.12 -0.12)">
       <use xlink:href="#ArialMT-67"/>
       <use x="72.216797" xlink:href="#ArialMT-79"/>
       <use x="150" xlink:href="#ArialMT-78"/>
       <use x="222.216797" xlink:href="#ArialMT-67"/>
       <use x="294.433594" xlink:href="#ArialMT-69"/>
       <use x="361.132812" xlink:href="#ArialMT-73"/>
       <use x="388.916016" xlink:href="#ArialMT-67"/>
       <use x="461.132812" xlink:href="#ArialMT-65"/>
       <use x="527.832031" xlink:href="#ArialMT-79"/>
      </g>
     </g>
    </g>
    <g id="xtick_9">
     <g id="text_9">
      <!-- CONDADO -->
      <g style="fill:#262626;" transform="translate(234.613589 497.17976)rotate(-40)scale(0.12 -0.12)">
       <use xlink:href="#ArialMT-67"/>
       <use x="72.216797" xlink:href="#ArialMT-79"/>
       <use x="150" xlink:href="#ArialMT-78"/>
       <use x="222.216797" xlink:href="#ArialMT-68"/>
       <use x="294.433594" xlink:href="#ArialMT-65"/>
       <use x="361.132812" xlink:href="#ArialMT-68"/>
       <use x="433.349609" xlink:href="#ArialMT-79"/>
      </g>
     </g>
    </g>
    <g id="xtick_10">
     <g id="text_10">
      <!-- COREMAS -->
      <g style="fill:#262626;" transform="translate(262.472772 496.754315)rotate(-40)scale(0.12 -0.12)">
       <use xlink:href="#ArialMT-67"/>
       <use x="72.216797" xlink:href="#ArialMT-79"/>
       <use x="150" xlink:href="#ArialMT-82"/>
       <use x="222.216797" xlink:href="#ArialMT-69"/>
       <use x="288.916016" xlink:href="#ArialMT-77"/>
       <use x="372.216797" xlink:href="#ArialMT-65"/>
       <use x="438.916016" xlink:href="#ArialMT-83"/>
      </g>
     </g>
    </g>
    <g id="xtick_11">
     <g id="text_11">
      <!-- DONA INES -->
      <g style="fill:#262626;" transform="translate(286.241277 499.761355)rotate(-40)scale(0.12 -0.12)">
       <use xlink:href="#ArialMT-68"/>
       <use x="72.216797" xlink:href="#ArialMT-79"/>
       <use x="150" xlink:href="#ArialMT-78"/>
       <use x="222.216797" xlink:href="#ArialMT-65"/>
       <use x="283.416016" xlink:href="#ArialMT-32"/>
       <use x="311.199219" xlink:href="#ArialMT-73"/>
       <use x="338.982422" xlink:href="#ArialMT-78"/>
       <use x="411.199219" xlink:href="#ArialMT-69"/>
       <use x="477.898438" xlink:href="#ArialMT-83"/>
      </g>
     </g>
    </g>
    <g id="xtick_12">
     <g id="text_12">
      <!-- GUARABIRA -->
      <g style="fill:#262626;" transform="translate(309.509938 503.187815)rotate(-40)scale(0.12 -0.12)">
       <use xlink:href="#ArialMT-71"/>
       <use x="77.783203" xlink:href="#ArialMT-85"/>
       <use x="150" xlink:href="#ArialMT-65"/>
       <use x="216.699219" xlink:href="#ArialMT-82"/>
       <use x="288.916016" xlink:href="#ArialMT-65"/>
       <use x="355.615234" xlink:href="#ArialMT-66"/>
       <use x="422.314453" xlink:href="#ArialMT-73"/>
       <use x="450.097656" xlink:href="#ArialMT-82"/>
       <use x="522.314453" xlink:href="#ArialMT-65"/>
      </g>
     </g>
    </g>
    <g id="xtick_13">
     <g id="text_13">
      <!-- ITAPORANGA -->
      <g style="fill:#262626;" transform="translate(331.414083 507.75924)rotate(-40)scale(0.12 -0.12)">
       <use xlink:href="#ArialMT-73"/>
       <use x="27.783203" xlink:href="#ArialMT-84"/>
       <use x="81.492188" xlink:href="#ArialMT-65"/>
       <use x="148.191406" xlink:href="#ArialMT-80"/>
       <use x="214.890625" xlink:href="#ArialMT-79"/>
       <use x="292.673828" xlink:href="#ArialMT-82"/>
       <use x="364.890625" xlink:href="#ArialMT-65"/>
       <use x="431.589844" xlink:href="#ArialMT-78"/>
       <use x="503.806641" xlink:href="#ArialMT-71"/>
       <use x="581.589844" xlink:href="#ArialMT-65"/>
      </g>
     </g>
    </g>
    <g id="xtick_14">
     <g id="text_14">
      <!-- JERICO -->
      <g style="fill:#262626;" transform="translate(384.651839 486.038643)rotate(-40)scale(0.12 -0.12)">
       <use xlink:href="#ArialMT-74"/>
       <use x="50" xlink:href="#ArialMT-69"/>
       <use x="116.699219" xlink:href="#ArialMT-82"/>
       <use x="188.916016" xlink:href="#ArialMT-73"/>
       <use x="216.699219" xlink:href="#ArialMT-67"/>
       <use x="288.916016" xlink:href="#ArialMT-79"/>
      </g>
     </g>
    </g>
    <g id="xtick_15">
     <g id="text_15">
      <!-- JOAO PESSOA -->
      <g style="fill:#262626;" transform="translate(380.322792 512.62233)rotate(-40)scale(0.12 -0.12)">
       <use xlink:href="#ArialMT-74"/>
       <use x="50" xlink:href="#ArialMT-79"/>
       <use x="127.783203" xlink:href="#ArialMT-65"/>
       <use x="194.482422" xlink:href="#ArialMT-79"/>
       <use x="272.265625" xlink:href="#ArialMT-32"/>
       <use x="300.048828" xlink:href="#ArialMT-80"/>
       <use x="366.748047" xlink:href="#ArialMT-69"/>
       <use x="433.447266" xlink:href="#ArialMT-83"/>
       <use x="500.146484" xlink:href="#ArialMT-83"/>
       <use x="566.845703" xlink:href="#ArialMT-79"/>
       <use x="644.628906" xlink:href="#ArialMT-65"/>
      </g>
     </g>
    </g>
    <g id="xtick_16">
     <g id="text_16">
      <!-- JOCA CLAUDINO -->
      <g style="fill:#262626;" transform="translate(398.998059 519.903105)rotate(-40)scale(0.12 -0.12)">
       <use xlink:href="#ArialMT-74"/>
       <use x="50" xlink:href="#ArialMT-79"/>
       <use x="127.783203" xlink:href="#ArialMT-67"/>
       <use x="200" xlink:href="#ArialMT-65"/>
       <use x="261.199219" xlink:href="#ArialMT-32"/>
       <use x="288.982422" xlink:href="#ArialMT-67"/>
       <use x="361.199219" xlink:href="#ArialMT-76"/>
       <use x="416.814453" xlink:href="#ArialMT-65"/>
       <use x="483.513672" xlink:href="#ArialMT-85"/>
       <use x="555.730469" xlink:href="#ArialMT-68"/>
       <use x="627.947266" xlink:href="#ArialMT-73"/>
       <use x="655.730469" xlink:href="#ArialMT-78"/>
       <use x="727.947266" xlink:href="#ArialMT-79"/>
      </g>
     </g>
    </g>
    <g id="xtick_17">
     <g id="text_17">
      <!-- JUAZEIRINHO -->
      <g style="fill:#262626;" transform="translate(439.13071 509.178997)rotate(-40)scale(0.12 -0.12)">
       <use xlink:href="#ArialMT-74"/>
       <use x="50" xlink:href="#ArialMT-85"/>
       <use x="122.216797" xlink:href="#ArialMT-65"/>
       <use x="188.916016" xlink:href="#ArialMT-90"/>
       <use x="250" xlink:href="#ArialMT-69"/>
       <use x="316.699219" xlink:href="#ArialMT-73"/>
       <use x="344.482422" xlink:href="#ArialMT-82"/>
       <use x="416.699219" xlink:href="#ArialMT-73"/>
       <use x="444.482422" xlink:href="#ArialMT-78"/>
       <use x="516.699219" xlink:href="#ArialMT-72"/>
       <use x="588.916016" xlink:href="#ArialMT-79"/>
      </g>
     </g>
    </g>
    <g id="xtick_18">
     <g id="text_18">
      <!-- Joao Pessoa -->
      <g style="fill:#262626;" transform="translate(474.624004 502.347772)rotate(-40)scale(0.12 -0.12)">
       <defs>
        <path d="M 3.328125 25.921875 
Q 3.328125 40.328125 11.328125 47.265625 
Q 18.015625 53.03125 27.640625 53.03125 
Q 38.328125 53.03125 45.109375 46.015625 
Q 51.90625 39.015625 51.90625 26.65625 
Q 51.90625 16.65625 48.90625 10.90625 
Q 45.90625 5.171875 40.15625 2 
Q 34.421875 -1.171875 27.640625 -1.171875 
Q 16.75 -1.171875 10.03125 5.8125 
Q 3.328125 12.796875 3.328125 25.921875 
z
M 12.359375 25.921875 
Q 12.359375 15.96875 16.703125 11.015625 
Q 21.046875 6.0625 27.640625 6.0625 
Q 34.1875 6.0625 38.53125 11.03125 
Q 42.875 16.015625 42.875 26.21875 
Q 42.875 35.84375 38.5 40.796875 
Q 34.125 45.75 27.640625 45.75 
Q 21.046875 45.75 16.703125 40.8125 
Q 12.359375 35.890625 12.359375 25.921875 
z
" id="ArialMT-111"/>
        <path d="M 40.4375 6.390625 
Q 35.546875 2.25 31.03125 0.53125 
Q 26.515625 -1.171875 21.34375 -1.171875 
Q 12.796875 -1.171875 8.203125 3 
Q 3.609375 7.171875 3.609375 13.671875 
Q 3.609375 17.484375 5.34375 20.625 
Q 7.078125 23.78125 9.890625 25.6875 
Q 12.703125 27.59375 16.21875 28.5625 
Q 18.796875 29.25 24.03125 29.890625 
Q 34.671875 31.15625 39.703125 32.90625 
Q 39.75 34.71875 39.75 35.203125 
Q 39.75 40.578125 37.25 42.78125 
Q 33.890625 45.75 27.25 45.75 
Q 21.046875 45.75 18.09375 43.578125 
Q 15.140625 41.40625 13.71875 35.890625 
L 5.125 37.0625 
Q 6.296875 42.578125 8.984375 45.96875 
Q 11.671875 49.359375 16.75 51.1875 
Q 21.828125 53.03125 28.515625 53.03125 
Q 35.15625 53.03125 39.296875 51.46875 
Q 43.453125 49.90625 45.40625 47.53125 
Q 47.359375 45.171875 48.140625 41.546875 
Q 48.578125 39.3125 48.578125 33.453125 
L 48.578125 21.734375 
Q 48.578125 9.46875 49.140625 6.21875 
Q 49.703125 2.984375 51.375 0 
L 42.1875 0 
Q 40.828125 2.734375 40.4375 6.390625 
z
M 39.703125 26.03125 
Q 34.90625 24.078125 25.34375 22.703125 
Q 19.921875 21.921875 17.671875 20.9375 
Q 15.4375 19.96875 14.203125 18.09375 
Q 12.984375 16.21875 12.984375 13.921875 
Q 12.984375 10.40625 15.640625 8.0625 
Q 18.3125 5.71875 23.4375 5.71875 
Q 28.515625 5.71875 32.46875 7.9375 
Q 36.421875 10.15625 38.28125 14.015625 
Q 39.703125 17 39.703125 22.796875 
z
" id="ArialMT-97"/>
        <path d="M 42.09375 16.703125 
L 51.171875 15.578125 
Q 49.03125 7.625 43.21875 3.21875 
Q 37.40625 -1.171875 28.375 -1.171875 
Q 17 -1.171875 10.328125 5.828125 
Q 3.65625 12.84375 3.65625 25.484375 
Q 3.65625 38.578125 10.390625 45.796875 
Q 17.140625 53.03125 27.875 53.03125 
Q 38.28125 53.03125 44.875 45.953125 
Q 51.46875 38.875 51.46875 26.03125 
Q 51.46875 25.25 51.421875 23.6875 
L 12.75 23.6875 
Q 13.234375 15.140625 17.578125 10.59375 
Q 21.921875 6.0625 28.421875 6.0625 
Q 33.25 6.0625 36.671875 8.59375 
Q 40.09375 11.140625 42.09375 16.703125 
z
M 13.234375 30.90625 
L 42.1875 30.90625 
Q 41.609375 37.453125 38.875 40.71875 
Q 34.671875 45.796875 27.984375 45.796875 
Q 21.921875 45.796875 17.796875 41.75 
Q 13.671875 37.703125 13.234375 30.90625 
z
" id="ArialMT-101"/>
        <path d="M 3.078125 15.484375 
L 11.765625 16.84375 
Q 12.5 11.625 15.84375 8.84375 
Q 19.1875 6.0625 25.203125 6.0625 
Q 31.25 6.0625 34.171875 8.515625 
Q 37.109375 10.984375 37.109375 14.3125 
Q 37.109375 17.28125 34.515625 19 
Q 32.71875 20.171875 25.53125 21.96875 
Q 15.875 24.421875 12.140625 26.203125 
Q 8.40625 27.984375 6.46875 31.125 
Q 4.546875 34.28125 4.546875 38.09375 
Q 4.546875 41.546875 6.125 44.5 
Q 7.71875 47.46875 10.453125 49.421875 
Q 12.5 50.921875 16.03125 51.96875 
Q 19.578125 53.03125 23.640625 53.03125 
Q 29.734375 53.03125 34.34375 51.265625 
Q 38.96875 49.515625 41.15625 46.5 
Q 43.359375 43.5 44.1875 38.484375 
L 35.59375 37.3125 
Q 35.015625 41.3125 32.203125 43.546875 
Q 29.390625 45.796875 24.265625 45.796875 
Q 18.21875 45.796875 15.625 43.796875 
Q 13.03125 41.796875 13.03125 39.109375 
Q 13.03125 37.40625 14.109375 36.03125 
Q 15.1875 34.625 17.484375 33.6875 
Q 18.796875 33.203125 25.25 31.453125 
Q 34.578125 28.953125 38.25 27.359375 
Q 41.9375 25.78125 44.03125 22.75 
Q 46.140625 19.734375 46.140625 15.234375 
Q 46.140625 10.84375 43.578125 6.953125 
Q 41.015625 3.078125 36.171875 0.953125 
Q 31.34375 -1.171875 25.25 -1.171875 
Q 15.140625 -1.171875 9.84375 3.03125 
Q 4.546875 7.234375 3.078125 15.484375 
z
" id="ArialMT-115"/>
       </defs>
       <use xlink:href="#ArialMT-74"/>
       <use x="50" xlink:href="#ArialMT-111"/>
       <use x="105.615234" xlink:href="#ArialMT-97"/>
       <use x="161.230469" xlink:href="#ArialMT-111"/>
       <use x="216.845703" xlink:href="#ArialMT-32"/>
       <use x="244.628906" xlink:href="#ArialMT-80"/>
       <use x="311.328125" xlink:href="#ArialMT-101"/>
       <use x="366.943359" xlink:href="#ArialMT-115"/>
       <use x="416.943359" xlink:href="#ArialMT-115"/>
       <use x="466.943359" xlink:href="#ArialMT-111"/>
       <use x="522.558594" xlink:href="#ArialMT-97"/>
      </g>
     </g>
    </g>
    <g id="xtick_19">
     <g id="text_19">
      <!-- LAGOA DE DENTRO -->
      <g style="fill:#262626;" transform="translate(467.261421 531.476898)rotate(-40)scale(0.12 -0.12)">
       <use xlink:href="#ArialMT-76"/>
       <use x="55.615234" xlink:href="#ArialMT-65"/>
       <use x="122.314453" xlink:href="#ArialMT-71"/>
       <use x="200.097656" xlink:href="#ArialMT-79"/>
       <use x="277.880859" xlink:href="#ArialMT-65"/>
       <use x="339.080078" xlink:href="#ArialMT-32"/>
       <use x="366.863281" xlink:href="#ArialMT-68"/>
       <use x="439.080078" xlink:href="#ArialMT-69"/>
       <use x="505.779297" xlink:href="#ArialMT-32"/>
       <use x="533.5625" xlink:href="#ArialMT-68"/>
       <use x="605.779297" xlink:href="#ArialMT-69"/>
       <use x="672.478516" xlink:href="#ArialMT-78"/>
       <use x="744.695312" xlink:href="#ArialMT-84"/>
       <use x="805.779297" xlink:href="#ArialMT-82"/>
       <use x="877.996094" xlink:href="#ArialMT-79"/>
      </g>
     </g>
    </g>
    <g id="xtick_20">
     <g id="text_20">
      <!-- LAGOA SECA -->
      <g style="fill:#262626;" transform="translate(523.716564 507.056593)rotate(-40)scale(0.12 -0.12)">
       <use xlink:href="#ArialMT-76"/>
       <use x="55.615234" xlink:href="#ArialMT-65"/>
       <use x="122.314453" xlink:href="#ArialMT-71"/>
       <use x="200.097656" xlink:href="#ArialMT-79"/>
       <use x="277.880859" xlink:href="#ArialMT-65"/>
       <use x="339.080078" xlink:href="#ArialMT-32"/>
       <use x="366.863281" xlink:href="#ArialMT-83"/>
       <use x="433.5625" xlink:href="#ArialMT-69"/>
       <use x="500.261719" xlink:href="#ArialMT-67"/>
       <use x="572.478516" xlink:href="#ArialMT-65"/>
      </g>
     </g>
    </g>
    <g id="xtick_21">
     <g id="text_21">
      <!-- MANAIRA -->
      <g style="fill:#262626;" transform="translate(567.942765 492.897589)rotate(-40)scale(0.12 -0.12)">
       <use xlink:href="#ArialMT-77"/>
       <use x="83.300781" xlink:href="#ArialMT-65"/>
       <use x="150" xlink:href="#ArialMT-78"/>
       <use x="222.216797" xlink:href="#ArialMT-65"/>
       <use x="288.916016" xlink:href="#ArialMT-73"/>
       <use x="316.699219" xlink:href="#ArialMT-82"/>
       <use x="388.916016" xlink:href="#ArialMT-65"/>
      </g>
     </g>
    </g>
    <g id="xtick_22">
     <g id="text_22">
      <!-- MARIZOPOLIS -->
      <g style="fill:#262626;" transform="translate(574.353182 510.469795)rotate(-40)scale(0.12 -0.12)">
       <use xlink:href="#ArialMT-77"/>
       <use x="83.300781" xlink:href="#ArialMT-65"/>
       <use x="150" xlink:href="#ArialMT-82"/>
       <use x="222.216797" xlink:href="#ArialMT-73"/>
       <use x="250" xlink:href="#ArialMT-90"/>
       <use x="311.083984" xlink:href="#ArialMT-79"/>
       <use x="388.867188" xlink:href="#ArialMT-80"/>
       <use x="455.566406" xlink:href="#ArialMT-79"/>
       <use x="533.349609" xlink:href="#ArialMT-76"/>
       <use x="588.964844" xlink:href="#ArialMT-73"/>
       <use x="616.748047" xlink:href="#ArialMT-83"/>
      </g>
     </g>
    </g>
    <g id="xtick_23">
     <g id="text_23">
      <!-- MONTE HOREBE -->
      <g style="fill:#262626;" transform="translate(589.961877 520.323729)rotate(-40)scale(0.12 -0.12)">
       <use xlink:href="#ArialMT-77"/>
       <use x="83.300781" xlink:href="#ArialMT-79"/>
       <use x="161.083984" xlink:href="#ArialMT-78"/>
       <use x="233.300781" xlink:href="#ArialMT-84"/>
       <use x="294.384766" xlink:href="#ArialMT-69"/>
       <use x="361.083984" xlink:href="#ArialMT-32"/>
       <use x="388.867188" xlink:href="#ArialMT-72"/>
       <use x="461.083984" xlink:href="#ArialMT-79"/>
       <use x="538.867188" xlink:href="#ArialMT-82"/>
       <use x="611.083984" xlink:href="#ArialMT-69"/>
       <use x="677.783203" xlink:href="#ArialMT-66"/>
       <use x="744.482422" xlink:href="#ArialMT-69"/>
      </g>
     </g>
    </g>
    <g id="xtick_24">
     <g id="text_24">
      <!-- NOVA OLINDA -->
      <g style="fill:#262626;" transform="translate(630.235289 509.481509)rotate(-40)scale(0.12 -0.12)">
       <defs>
        <path d="M 28.171875 0 
L 0.4375 71.578125 
L 10.6875 71.578125 
L 29.296875 19.578125 
Q 31.546875 13.328125 33.0625 7.859375 
Q 34.71875 13.71875 36.921875 19.578125 
L 56.25 71.578125 
L 65.921875 71.578125 
L 37.890625 0 
z
" id="ArialMT-86"/>
       </defs>
       <use xlink:href="#ArialMT-78"/>
       <use x="72.216797" xlink:href="#ArialMT-79"/>
       <use x="150" xlink:href="#ArialMT-86"/>
       <use x="209.324219" xlink:href="#ArialMT-65"/>
       <use x="270.523438" xlink:href="#ArialMT-32"/>
       <use x="298.306641" xlink:href="#ArialMT-79"/>
       <use x="376.089844" xlink:href="#ArialMT-76"/>
       <use x="431.705078" xlink:href="#ArialMT-73"/>
       <use x="459.488281" xlink:href="#ArialMT-78"/>
       <use x="531.705078" xlink:href="#ArialMT-68"/>
       <use x="603.921875" xlink:href="#ArialMT-65"/>
      </g>
     </g>
    </g>
    <g id="xtick_25">
     <g id="text_25">
      <!-- PATOS -->
      <g style="fill:#262626;" transform="translate(689.591825 482.626646)rotate(-40)scale(0.12 -0.12)">
       <use xlink:href="#ArialMT-80"/>
       <use x="59.324219" xlink:href="#ArialMT-65"/>
       <use x="118.648438" xlink:href="#ArialMT-84"/>
       <use x="177.982422" xlink:href="#ArialMT-79"/>
       <use x="255.765625" xlink:href="#ArialMT-83"/>
      </g>
     </g>
    </g>
    <g id="xtick_26">
     <g id="text_26">
      <!-- POMBAL -->
      <g style="fill:#262626;" transform="translate(708.272838 489.9026)rotate(-40)scale(0.12 -0.12)">
       <use xlink:href="#ArialMT-80"/>
       <use x="66.699219" xlink:href="#ArialMT-79"/>
       <use x="144.482422" xlink:href="#ArialMT-77"/>
       <use x="227.783203" xlink:href="#ArialMT-66"/>
       <use x="294.482422" xlink:href="#ArialMT-65"/>
       <use x="361.181641" xlink:href="#ArialMT-76"/>
      </g>
     </g>
    </g>
    <g id="xtick_27">
     <g id="text_27">
      <!-- RECIFE -->
      <g style="fill:#262626;" transform="translate(740.22988 486.038643)rotate(-40)scale(0.12 -0.12)">
       <defs>
        <path d="M 8.203125 0 
L 8.203125 71.578125 
L 56.5 71.578125 
L 56.5 63.140625 
L 17.671875 63.140625 
L 17.671875 40.96875 
L 51.265625 40.96875 
L 51.265625 32.515625 
L 17.671875 32.515625 
L 17.671875 0 
z
" id="ArialMT-70"/>
       </defs>
       <use xlink:href="#ArialMT-82"/>
       <use x="72.216797" xlink:href="#ArialMT-69"/>
       <use x="138.916016" xlink:href="#ArialMT-67"/>
       <use x="211.132812" xlink:href="#ArialMT-73"/>
       <use x="238.916016" xlink:href="#ArialMT-70"/>
       <use x="300" xlink:href="#ArialMT-69"/>
      </g>
     </g>
    </g>
    <g id="xtick_28">
     <g id="text_28">
      <!-- SOUSA -->
      <g style="fill:#262626;" transform="translate(769.107422 484.758693)rotate(-40)scale(0.12 -0.12)">
       <use xlink:href="#ArialMT-83"/>
       <use x="66.699219" xlink:href="#ArialMT-79"/>
       <use x="144.482422" xlink:href="#ArialMT-85"/>
       <use x="216.699219" xlink:href="#ArialMT-83"/>
       <use x="283.398438" xlink:href="#ArialMT-65"/>
      </g>
     </g>
    </g>
    <g id="xtick_29">
     <g id="text_29">
      <!-- TEXEIRA -->
      <g style="fill:#262626;" transform="translate(789.309512 490.758311)rotate(-40)scale(0.12 -0.12)">
       <defs>
        <path d="M 0.4375 0 
L 28.125 37.3125 
L 3.71875 71.578125 
L 14.984375 71.578125 
L 27.984375 53.21875 
Q 32.03125 47.515625 33.734375 44.4375 
Q 36.140625 48.34375 39.40625 52.59375 
L 53.8125 71.578125 
L 64.109375 71.578125 
L 38.96875 37.84375 
L 66.0625 0 
L 54.34375 0 
L 36.328125 25.53125 
Q 34.8125 27.734375 33.203125 30.328125 
Q 30.8125 26.421875 29.78125 24.953125 
L 11.8125 0 
z
" id="ArialMT-88"/>
       </defs>
       <use xlink:href="#ArialMT-84"/>
       <use x="61.083984" xlink:href="#ArialMT-69"/>
       <use x="127.783203" xlink:href="#ArialMT-88"/>
       <use x="194.482422" xlink:href="#ArialMT-69"/>
       <use x="261.181641" xlink:href="#ArialMT-73"/>
       <use x="288.964844" xlink:href="#ArialMT-82"/>
       <use x="361.181641" xlink:href="#ArialMT-65"/>
      </g>
     </g>
    </g>
    <g id="text_30">
     <!-- MUNICIPIO -->
     <g style="fill:#262626;" transform="translate(415.579476 556.751177)scale(0.12 -0.12)">
      <use xlink:href="#ArialMT-77"/>
      <use x="83.300781" xlink:href="#ArialMT-85"/>
      <use x="155.517578" xlink:href="#ArialMT-78"/>
      <use x="227.734375" xlink:href="#ArialMT-73"/>
      <use x="255.517578" xlink:href="#ArialMT-67"/>
      <use x="327.734375" xlink:href="#ArialMT-73"/>
      <use x="355.517578" xlink:href="#ArialMT-80"/>
      <use x="422.216797" xlink:href="#ArialMT-73"/>
      <use x="450" xlink:href="#ArialMT-79"/>
     </g>
    </g>
   </g>
   <g id="matplotlib.axis_2">
    <g id="ytick_1">
     <g id="line2d_1">
      <path clip-path="url(#pd47efdc631)" d="M 50.640076 441.673333 
L 843.852627 441.673333 
" style="fill:none;stroke:#cccccc;stroke-linecap:round;"/>
     </g>
     <g id="text_31">
      <!-- 0 -->
      <g style="fill:#262626;" transform="translate(35.023044 445.61013)scale(0.11 -0.11)">
       <defs>
        <path d="M 4.15625 35.296875 
Q 4.15625 48 6.765625 55.734375 
Q 9.375 63.484375 14.515625 67.671875 
Q 19.671875 71.875 27.484375 71.875 
Q 33.25 71.875 37.59375 69.546875 
Q 41.9375 67.234375 44.765625 62.859375 
Q 47.609375 58.5 49.21875 52.21875 
Q 50.828125 45.953125 50.828125 35.296875 
Q 50.828125 22.703125 48.234375 14.96875 
Q 45.65625 7.234375 40.5 3 
Q 35.359375 -1.21875 27.484375 -1.21875 
Q 17.140625 -1.21875 11.234375 6.203125 
Q 4.15625 15.140625 4.15625 35.296875 
z
M 13.1875 35.296875 
Q 13.1875 17.671875 17.3125 11.828125 
Q 21.4375 6 27.484375 6 
Q 33.546875 6 37.671875 11.859375 
Q 41.796875 17.71875 41.796875 35.296875 
Q 41.796875 52.984375 37.671875 58.78125 
Q 33.546875 64.59375 27.390625 64.59375 
Q 21.34375 64.59375 17.71875 59.46875 
Q 13.1875 52.9375 13.1875 35.296875 
z
" id="ArialMT-48"/>
       </defs>
       <use xlink:href="#ArialMT-48"/>
      </g>
     </g>
    </g>
    <g id="ytick_2">
     <g id="line2d_2">
      <path clip-path="url(#pd47efdc631)" d="M 50.640076 358.900344 
L 843.852627 358.900344 
" style="fill:none;stroke:#cccccc;stroke-linecap:round;"/>
     </g>
     <g id="text_32">
      <!-- 20 -->
      <g style="fill:#262626;" transform="translate(28.906013 362.837141)scale(0.11 -0.11)">
       <defs>
        <path d="M 50.34375 8.453125 
L 50.34375 0 
L 3.03125 0 
Q 2.9375 3.171875 4.046875 6.109375 
Q 5.859375 10.9375 9.828125 15.625 
Q 13.8125 20.3125 21.34375 26.46875 
Q 33.015625 36.03125 37.109375 41.625 
Q 41.21875 47.21875 41.21875 52.203125 
Q 41.21875 57.421875 37.46875 61 
Q 33.734375 64.59375 27.734375 64.59375 
Q 21.390625 64.59375 17.578125 60.78125 
Q 13.765625 56.984375 13.71875 50.25 
L 4.6875 51.171875 
Q 5.609375 61.28125 11.65625 66.578125 
Q 17.71875 71.875 27.9375 71.875 
Q 38.234375 71.875 44.234375 66.15625 
Q 50.25 60.453125 50.25 52 
Q 50.25 47.703125 48.484375 43.546875 
Q 46.734375 39.40625 42.65625 34.8125 
Q 38.578125 30.21875 29.109375 22.21875 
Q 21.1875 15.578125 18.9375 13.203125 
Q 16.703125 10.84375 15.234375 8.453125 
z
" id="ArialMT-50"/>
       </defs>
       <use xlink:href="#ArialMT-50"/>
       <use x="55.615234" xlink:href="#ArialMT-48"/>
      </g>
     </g>
    </g>
    <g id="ytick_3">
     <g id="line2d_3">
      <path clip-path="url(#pd47efdc631)" d="M 50.640076 276.127355 
L 843.852627 276.127355 
" style="fill:none;stroke:#cccccc;stroke-linecap:round;"/>
     </g>
     <g id="text_33">
      <!-- 40 -->
      <g style="fill:#262626;" transform="translate(28.906013 280.064152)scale(0.11 -0.11)">
       <defs>
        <path d="M 32.328125 0 
L 32.328125 17.140625 
L 1.265625 17.140625 
L 1.265625 25.203125 
L 33.9375 71.578125 
L 41.109375 71.578125 
L 41.109375 25.203125 
L 50.78125 25.203125 
L 50.78125 17.140625 
L 41.109375 17.140625 
L 41.109375 0 
z
M 32.328125 25.203125 
L 32.328125 57.46875 
L 9.90625 25.203125 
z
" id="ArialMT-52"/>
       </defs>
       <use xlink:href="#ArialMT-52"/>
       <use x="55.615234" xlink:href="#ArialMT-48"/>
      </g>
     </g>
    </g>
    <g id="ytick_4">
     <g id="line2d_4">
      <path clip-path="url(#pd47efdc631)" d="M 50.640076 193.354367 
L 843.852627 193.354367 
" style="fill:none;stroke:#cccccc;stroke-linecap:round;"/>
     </g>
     <g id="text_34">
      <!-- 60 -->
      <g style="fill:#262626;" transform="translate(28.906013 197.291163)scale(0.11 -0.11)">
       <defs>
        <path d="M 49.75 54.046875 
L 41.015625 53.375 
Q 39.84375 58.546875 37.703125 60.890625 
Q 34.125 64.65625 28.90625 64.65625 
Q 24.703125 64.65625 21.53125 62.3125 
Q 17.390625 59.28125 14.984375 53.46875 
Q 12.59375 47.65625 12.5 36.921875 
Q 15.671875 41.75 20.265625 44.09375 
Q 24.859375 46.4375 29.890625 46.4375 
Q 38.671875 46.4375 44.84375 39.96875 
Q 51.03125 33.5 51.03125 23.25 
Q 51.03125 16.5 48.125 10.71875 
Q 45.21875 4.9375 40.140625 1.859375 
Q 35.0625 -1.21875 28.609375 -1.21875 
Q 17.625 -1.21875 10.6875 6.859375 
Q 3.765625 14.9375 3.765625 33.5 
Q 3.765625 54.25 11.421875 63.671875 
Q 18.109375 71.875 29.4375 71.875 
Q 37.890625 71.875 43.28125 67.140625 
Q 48.6875 62.40625 49.75 54.046875 
z
M 13.875 23.1875 
Q 13.875 18.65625 15.796875 14.5 
Q 17.71875 10.359375 21.1875 8.171875 
Q 24.65625 6 28.46875 6 
Q 34.03125 6 38.03125 10.484375 
Q 42.046875 14.984375 42.046875 22.703125 
Q 42.046875 30.125 38.078125 34.390625 
Q 34.125 38.671875 28.125 38.671875 
Q 22.171875 38.671875 18.015625 34.390625 
Q 13.875 30.125 13.875 23.1875 
z
" id="ArialMT-54"/>
       </defs>
       <use xlink:href="#ArialMT-54"/>
       <use x="55.615234" xlink:href="#ArialMT-48"/>
      </g>
     </g>
    </g>
    <g id="ytick_5">
     <g id="line2d_5">
      <path clip-path="url(#pd47efdc631)" d="M 50.640076 110.581378 
L 843.852627 110.581378 
" style="fill:none;stroke:#cccccc;stroke-linecap:round;"/>
     </g>
     <g id="text_35">
      <!-- 80 -->
      <g style="fill:#262626;" transform="translate(28.906013 114.518174)scale(0.11 -0.11)">
       <defs>
        <path d="M 17.671875 38.8125 
Q 12.203125 40.828125 9.5625 44.53125 
Q 6.9375 48.25 6.9375 53.421875 
Q 6.9375 61.234375 12.546875 66.546875 
Q 18.171875 71.875 27.484375 71.875 
Q 36.859375 71.875 42.578125 66.421875 
Q 48.296875 60.984375 48.296875 53.171875 
Q 48.296875 48.1875 45.671875 44.5 
Q 43.0625 40.828125 37.75 38.8125 
Q 44.34375 36.671875 47.78125 31.875 
Q 51.21875 27.09375 51.21875 20.453125 
Q 51.21875 11.28125 44.71875 5.03125 
Q 38.234375 -1.21875 27.640625 -1.21875 
Q 17.046875 -1.21875 10.546875 5.046875 
Q 4.046875 11.328125 4.046875 20.703125 
Q 4.046875 27.6875 7.59375 32.390625 
Q 11.140625 37.109375 17.671875 38.8125 
z
M 15.921875 53.71875 
Q 15.921875 48.640625 19.1875 45.40625 
Q 22.46875 42.1875 27.6875 42.1875 
Q 32.765625 42.1875 36.015625 45.375 
Q 39.265625 48.578125 39.265625 53.21875 
Q 39.265625 58.0625 35.90625 61.359375 
Q 32.5625 64.65625 27.59375 64.65625 
Q 22.5625 64.65625 19.234375 61.421875 
Q 15.921875 58.203125 15.921875 53.71875 
z
M 13.09375 20.65625 
Q 13.09375 16.890625 14.875 13.375 
Q 16.65625 9.859375 20.171875 7.921875 
Q 23.6875 6 27.734375 6 
Q 34.03125 6 38.125 10.046875 
Q 42.234375 14.109375 42.234375 20.359375 
Q 42.234375 26.703125 38.015625 30.859375 
Q 33.796875 35.015625 27.4375 35.015625 
Q 21.234375 35.015625 17.15625 30.90625 
Q 13.09375 26.8125 13.09375 20.65625 
z
" id="ArialMT-56"/>
       </defs>
       <use xlink:href="#ArialMT-56"/>
       <use x="55.615234" xlink:href="#ArialMT-48"/>
      </g>
     </g>
    </g>
    <g id="ytick_6">
     <g id="line2d_6">
      <path clip-path="url(#pd47efdc631)" d="M 50.640076 27.808389 
L 843.852627 27.808389 
" style="fill:none;stroke:#cccccc;stroke-linecap:round;"/>
     </g>
     <g id="text_36">
      <!-- 100 -->
      <g style="fill:#262626;" transform="translate(22.788982 31.745186)scale(0.11 -0.11)">
       <defs>
        <path d="M 37.25 0 
L 28.46875 0 
L 28.46875 56 
Q 25.296875 52.984375 20.140625 49.953125 
Q 14.984375 46.921875 10.890625 45.40625 
L 10.890625 53.90625 
Q 18.265625 57.375 23.78125 62.296875 
Q 29.296875 67.234375 31.59375 71.875 
L 37.25 71.875 
z
" id="ArialMT-49"/>
       </defs>
       <use xlink:href="#ArialMT-49"/>
       <use x="55.615234" xlink:href="#ArialMT-48"/>
       <use x="111.230469" xlink:href="#ArialMT-48"/>
      </g>
     </g>
    </g>
    <g id="text_37">
     <!-- Mean -->
     <g style="fill:#262626;" transform="translate(16.403982 239.444167)rotate(-90)scale(0.12 -0.12)">
      <defs>
       <path d="M 6.59375 0 
L 6.59375 51.859375 
L 14.5 51.859375 
L 14.5 44.484375 
Q 20.21875 53.03125 31 53.03125 
Q 35.6875 53.03125 39.625 51.34375 
Q 43.5625 49.65625 45.515625 46.921875 
Q 47.46875 44.1875 48.25 40.4375 
Q 48.734375 37.984375 48.734375 31.890625 
L 48.734375 0 
L 39.9375 0 
L 39.9375 31.546875 
Q 39.9375 36.921875 38.90625 39.578125 
Q 37.890625 42.234375 35.28125 43.8125 
Q 32.671875 45.40625 29.15625 45.40625 
Q 23.53125 45.40625 19.453125 41.84375 
Q 15.375 38.28125 15.375 28.328125 
L 15.375 0 
z
" id="ArialMT-110"/>
      </defs>
      <use xlink:href="#ArialMT-77"/>
      <use x="83.300781" xlink:href="#ArialMT-101"/>
      <use x="138.916016" xlink:href="#ArialMT-97"/>
      <use x="194.53125" xlink:href="#ArialMT-110"/>
     </g>
    </g>
   </g>
   <g id="patch_3">
    <path clip-path="url(#pd47efdc631)" d="M 53.375291 441.673333 
L 75.257017 441.673333 
L 75.257017 219.463931 
L 53.375291 219.463931 
z
" style="fill:#ea96a3;stroke:#ffffff;stroke-linejoin:miter;"/>
   </g>
   <g id="patch_4">
    <path clip-path="url(#pd47efdc631)" d="M 80.727448 441.673333 
L 102.609174 441.673333 
L 102.609174 298.629446 
L 80.727448 298.629446 
z
" style="fill:#e99790;stroke:#ffffff;stroke-linejoin:miter;"/>
   </g>
   <g id="patch_5">
    <path clip-path="url(#pd47efdc631)" d="M 108.079605 441.673333 
L 129.961331 441.673333 
L 129.961331 202.711753 
L 108.079605 202.711753 
z
" style="fill:#e4946d;stroke:#ffffff;stroke-linejoin:miter;"/>
   </g>
   <g id="patch_6">
    <path clip-path="url(#pd47efdc631)" d="M 135.431762 441.673333 
L 157.313488 441.673333 
L 157.313488 229.489491 
L 135.431762 229.489491 
z
" style="fill:#d5954d;stroke:#ffffff;stroke-linejoin:miter;"/>
   </g>
   <g id="patch_7">
    <path clip-path="url(#pd47efdc631)" d="M 162.783919 441.673333 
L 184.665645 441.673333 
L 184.665645 151.384153 
L 162.783919 151.384153 
z
" style="fill:#c4994b;stroke:#ffffff;stroke-linejoin:miter;"/>
   </g>
   <g id="patch_8">
    <path clip-path="url(#pd47efdc631)" d="M 190.136076 441.673333 
L 212.017802 441.673333 
L 212.017802 249.206943 
L 190.136076 249.206943 
z
" style="fill:#b69c49;stroke:#ffffff;stroke-linejoin:miter;"/>
   </g>
   <g id="patch_9">
    <path clip-path="url(#pd47efdc631)" d="M 217.488233 441.673333 
L 239.369959 441.673333 
L 239.369959 278.787181 
L 217.488233 278.787181 
z
" style="fill:#a99e47;stroke:#ffffff;stroke-linejoin:miter;"/>
   </g>
   <g id="patch_10">
    <path clip-path="url(#pd47efdc631)" d="M 244.84039 441.673333 
L 266.722116 441.673333 
L 266.722116 269.687279 
L 244.84039 269.687279 
z
" style="fill:#9ba146;stroke:#ffffff;stroke-linejoin:miter;"/>
   </g>
   <g id="patch_11">
    <path clip-path="url(#pd47efdc631)" d="M 272.192547 441.673333 
L 294.074273 441.673333 
L 294.074273 284.496204 
L 272.192547 284.496204 
z
" style="fill:#8da546;stroke:#ffffff;stroke-linejoin:miter;"/>
   </g>
   <g id="patch_12">
    <path clip-path="url(#pd47efdc631)" d="M 299.544704 441.673333 
L 321.42643 441.673333 
L 321.42643 152.792065 
L 299.544704 152.792065 
z
" style="fill:#78aa47;stroke:#ffffff;stroke-linejoin:miter;"/>
   </g>
   <g id="patch_13">
    <path clip-path="url(#pd47efdc631)" d="M 326.896861 441.673333 
L 348.778586 441.673333 
L 348.778586 311.523983 
L 326.896861 311.523983 
z
" style="fill:#4ab147;stroke:#ffffff;stroke-linejoin:miter;"/>
   </g>
   <g id="patch_14">
    <path clip-path="url(#pd47efdc631)" d="M 354.249018 441.673333 
L 376.130743 441.673333 
L 376.130743 238.504885 
L 354.249018 238.504885 
z
" style="fill:#49af76;stroke:#ffffff;stroke-linejoin:miter;"/>
   </g>
   <g id="patch_15">
    <path clip-path="url(#pd47efdc631)" d="M 381.601175 441.673333 
L 403.4829 441.673333 
L 403.4829 266.717726 
L 381.601175 266.717726 
z
" style="fill:#4aae89;stroke:#ffffff;stroke-linejoin:miter;"/>
   </g>
   <g id="patch_16">
    <path clip-path="url(#pd47efdc631)" d="M 408.953332 441.673333 
L 430.835057 441.673333 
L 430.835057 274.332826 
L 408.953332 274.332826 
z
" style="fill:#4aad96;stroke:#ffffff;stroke-linejoin:miter;"/>
   </g>
   <g id="patch_17">
    <path clip-path="url(#pd47efdc631)" d="M 436.305489 441.673333 
L 458.187214 441.673333 
L 458.187214 226.620158 
L 436.305489 226.620158 
z
" style="fill:#4baca0;stroke:#ffffff;stroke-linejoin:miter;"/>
   </g>
   <g id="patch_18">
    <path clip-path="url(#pd47efdc631)" d="M 463.657646 441.673333 
L 485.539371 441.673333 
L 485.539371 270.587911 
L 463.657646 270.587911 
z
" style="fill:#4baba8;stroke:#ffffff;stroke-linejoin:miter;"/>
   </g>
   <g id="patch_19">
    <path clip-path="url(#pd47efdc631)" d="M 491.009803 441.673333 
L 512.891528 441.673333 
L 512.891528 252.768047 
L 491.009803 252.768047 
z
" style="fill:#4dabb2;stroke:#ffffff;stroke-linejoin:miter;"/>
   </g>
   <g id="patch_20">
    <path clip-path="url(#pd47efdc631)" d="M 518.36196 441.673333 
L 540.243685 441.673333 
L 540.243685 196.358485 
L 518.36196 196.358485 
z
" style="fill:#4facbd;stroke:#ffffff;stroke-linejoin:miter;"/>
   </g>
   <g id="patch_21">
    <path clip-path="url(#pd47efdc631)" d="M 545.714117 441.673333 
L 567.595842 441.673333 
L 567.595842 258.510986 
L 545.714117 258.510986 
z
" style="fill:#52accb;stroke:#ffffff;stroke-linejoin:miter;"/>
   </g>
   <g id="patch_22">
    <path clip-path="url(#pd47efdc631)" d="M 573.066273 441.673333 
L 594.947999 441.673333 
L 594.947999 282.560978 
L 573.066273 282.560978 
z
" style="fill:#57addf;stroke:#ffffff;stroke-linejoin:miter;"/>
   </g>
   <g id="patch_23">
    <path clip-path="url(#pd47efdc631)" d="M 600.41843 441.673333 
L 622.300156 441.673333 
L 622.300156 171.061245 
L 600.41843 171.061245 
z
" style="fill:#8aaee7;stroke:#ffffff;stroke-linejoin:miter;"/>
   </g>
   <g id="patch_24">
    <path clip-path="url(#pd47efdc631)" d="M 627.770587 441.673333 
L 649.652313 441.673333 
L 649.652313 193.714187 
L 627.770587 193.714187 
z
" style="fill:#a7aceb;stroke:#ffffff;stroke-linejoin:miter;"/>
   </g>
   <g id="patch_25">
    <path clip-path="url(#pd47efdc631)" d="M 655.122744 441.673333 
L 677.00447 441.673333 
L 677.00447 27.889206 
L 655.122744 27.889206 
z
" style="fill:#baa6ea;stroke:#ffffff;stroke-linejoin:miter;"/>
   </g>
   <g id="patch_26">
    <path clip-path="url(#pd47efdc631)" d="M 682.474901 441.673333 
L 704.356627 441.673333 
L 704.356627 272.968097 
L 682.474901 272.968097 
z
" style="fill:#cb9de9;stroke:#ffffff;stroke-linejoin:miter;"/>
   </g>
   <g id="patch_27">
    <path clip-path="url(#pd47efdc631)" d="M 709.827058 441.673333 
L 731.708784 441.673333 
L 731.708784 264.166397 
L 709.827058 264.166397 
z
" style="fill:#dc92e8;stroke:#ffffff;stroke-linejoin:miter;"/>
   </g>
   <g id="patch_28">
    <path clip-path="url(#pd47efdc631)" d="M 737.179215 441.673333 
L 759.060941 441.673333 
L 759.060941 146.495142 
L 737.179215 146.495142 
z
" style="fill:#e78bde;stroke:#ffffff;stroke-linejoin:miter;"/>
   </g>
   <g id="patch_29">
    <path clip-path="url(#pd47efdc631)" d="M 764.531372 441.673333 
L 786.413098 441.673333 
L 786.413098 257.83528 
L 764.531372 257.83528 
z
" style="fill:#e88ece;stroke:#ffffff;stroke-linejoin:miter;"/>
   </g>
   <g id="patch_30">
    <path clip-path="url(#pd47efdc631)" d="M 791.883529 441.673333 
L 813.765255 441.673333 
L 813.765255 207.585964 
L 791.883529 207.585964 
z
" style="fill:#e891c0;stroke:#ffffff;stroke-linejoin:miter;"/>
   </g>
   <g id="patch_31">
    <path clip-path="url(#pd47efdc631)" d="M 819.235686 441.673333 
L 841.117412 441.673333 
L 841.117412 149.345955 
L 819.235686 149.345955 
z
" style="fill:#e994b3;stroke:#ffffff;stroke-linejoin:miter;"/>
   </g>
   <g id="line2d_7">
    <path clip-path="url(#pd47efdc631)" d="M 0 0 
" style="fill:none;stroke:#424242;stroke-linecap:round;stroke-width:2.7;"/>
   </g>
   <g id="line2d_8">
    <path clip-path="url(#pd47efdc631)" d="M 0 0 
" style="fill:none;stroke:#424242;stroke-linecap:round;stroke-width:2.7;"/>
   </g>
   <g id="line2d_9">
    <path clip-path="url(#pd47efdc631)" d="M 0 0 
" style="fill:none;stroke:#424242;stroke-linecap:round;stroke-width:2.7;"/>
   </g>
   <g id="line2d_10">
    <path clip-path="url(#pd47efdc631)" d="M 0 0 
" style="fill:none;stroke:#424242;stroke-linecap:round;stroke-width:2.7;"/>
   </g>
   <g id="line2d_11">
    <path clip-path="url(#pd47efdc631)" d="M 0 0 
" style="fill:none;stroke:#424242;stroke-linecap:round;stroke-width:2.7;"/>
   </g>
   <g id="line2d_12">
    <path clip-path="url(#pd47efdc631)" d="M 0 0 
" style="fill:none;stroke:#424242;stroke-linecap:round;stroke-width:2.7;"/>
   </g>
   <g id="line2d_13">
    <path clip-path="url(#pd47efdc631)" d="M 0 0 
" style="fill:none;stroke:#424242;stroke-linecap:round;stroke-width:2.7;"/>
   </g>
   <g id="line2d_14">
    <path clip-path="url(#pd47efdc631)" d="M 0 0 
" style="fill:none;stroke:#424242;stroke-linecap:round;stroke-width:2.7;"/>
   </g>
   <g id="line2d_15">
    <path clip-path="url(#pd47efdc631)" d="M 0 0 
" style="fill:none;stroke:#424242;stroke-linecap:round;stroke-width:2.7;"/>
   </g>
   <g id="line2d_16">
    <path clip-path="url(#pd47efdc631)" d="M 0 0 
" style="fill:none;stroke:#424242;stroke-linecap:round;stroke-width:2.7;"/>
   </g>
   <g id="line2d_17">
    <path clip-path="url(#pd47efdc631)" d="M 0 0 
" style="fill:none;stroke:#424242;stroke-linecap:round;stroke-width:2.7;"/>
   </g>
   <g id="line2d_18">
    <path clip-path="url(#pd47efdc631)" d="M 0 0 
" style="fill:none;stroke:#424242;stroke-linecap:round;stroke-width:2.7;"/>
   </g>
   <g id="line2d_19">
    <path clip-path="url(#pd47efdc631)" d="M 0 0 
" style="fill:none;stroke:#424242;stroke-linecap:round;stroke-width:2.7;"/>
   </g>
   <g id="line2d_20">
    <path clip-path="url(#pd47efdc631)" d="M 0 0 
" style="fill:none;stroke:#424242;stroke-linecap:round;stroke-width:2.7;"/>
   </g>
   <g id="line2d_21">
    <path clip-path="url(#pd47efdc631)" d="M 0 0 
" style="fill:none;stroke:#424242;stroke-linecap:round;stroke-width:2.7;"/>
   </g>
   <g id="line2d_22">
    <path clip-path="url(#pd47efdc631)" d="M 0 0 
" style="fill:none;stroke:#424242;stroke-linecap:round;stroke-width:2.7;"/>
   </g>
   <g id="line2d_23">
    <path clip-path="url(#pd47efdc631)" d="M 0 0 
" style="fill:none;stroke:#424242;stroke-linecap:round;stroke-width:2.7;"/>
   </g>
   <g id="line2d_24">
    <path clip-path="url(#pd47efdc631)" d="M 0 0 
" style="fill:none;stroke:#424242;stroke-linecap:round;stroke-width:2.7;"/>
   </g>
   <g id="line2d_25">
    <path clip-path="url(#pd47efdc631)" d="M 0 0 
" style="fill:none;stroke:#424242;stroke-linecap:round;stroke-width:2.7;"/>
   </g>
   <g id="line2d_26">
    <path clip-path="url(#pd47efdc631)" d="M 0 0 
" style="fill:none;stroke:#424242;stroke-linecap:round;stroke-width:2.7;"/>
   </g>
   <g id="line2d_27">
    <path clip-path="url(#pd47efdc631)" d="M 0 0 
" style="fill:none;stroke:#424242;stroke-linecap:round;stroke-width:2.7;"/>
   </g>
   <g id="line2d_28">
    <path clip-path="url(#pd47efdc631)" d="M 0 0 
" style="fill:none;stroke:#424242;stroke-linecap:round;stroke-width:2.7;"/>
   </g>
   <g id="line2d_29">
    <path clip-path="url(#pd47efdc631)" d="M 0 0 
" style="fill:none;stroke:#424242;stroke-linecap:round;stroke-width:2.7;"/>
   </g>
   <g id="line2d_30">
    <path clip-path="url(#pd47efdc631)" d="M 0 0 
" style="fill:none;stroke:#424242;stroke-linecap:round;stroke-width:2.7;"/>
   </g>
   <g id="line2d_31">
    <path clip-path="url(#pd47efdc631)" d="M 0 0 
" style="fill:none;stroke:#424242;stroke-linecap:round;stroke-width:2.7;"/>
   </g>
   <g id="line2d_32">
    <path clip-path="url(#pd47efdc631)" d="M 0 0 
" style="fill:none;stroke:#424242;stroke-linecap:round;stroke-width:2.7;"/>
   </g>
   <g id="line2d_33">
    <path clip-path="url(#pd47efdc631)" d="M 0 0 
" style="fill:none;stroke:#424242;stroke-linecap:round;stroke-width:2.7;"/>
   </g>
   <g id="line2d_34">
    <path clip-path="url(#pd47efdc631)" d="M 0 0 
" style="fill:none;stroke:#424242;stroke-linecap:round;stroke-width:2.7;"/>
   </g>
   <g id="line2d_35">
    <path clip-path="url(#pd47efdc631)" d="M 0 0 
" style="fill:none;stroke:#424242;stroke-linecap:round;stroke-width:2.7;"/>
   </g>
   <g id="patch_32">
    <path d="M 50.640076 441.673333 
L 50.640076 7.2 
" style="fill:none;stroke:#cccccc;stroke-linecap:square;stroke-linejoin:miter;stroke-width:1.25;"/>
   </g>
   <g id="patch_33">
    <path d="M 843.852627 441.673333 
L 843.852627 7.2 
" style="fill:none;stroke:#cccccc;stroke-linecap:square;stroke-linejoin:miter;stroke-width:1.25;"/>
   </g>
   <g id="patch_34">
    <path d="M 50.640076 441.673333 
L 843.852627 441.673333 
" style="fill:none;stroke:#cccccc;stroke-linecap:square;stroke-linejoin:miter;stroke-width:1.25;"/>
   </g>
   <g id="patch_35">
    <path d="M 50.640076 7.2 
L 843.852627 7.2 
" style="fill:none;stroke:#cccccc;stroke-linecap:square;stroke-linejoin:miter;stroke-width:1.25;"/>
   </g>
  </g>
 </g>
 <defs>
  <clipPath id="pd47efdc631">
   <rect height="434.473333" width="793.212552" x="50.640076" y="7.2"/>
  </clipPath>
 </defs>
</svg>
